<svg width="48" height="48" viewBox="0 0 48 48" fill="none" xmlns="http://www.w3.org/2000/svg">
<circle cx="24" cy="24" r="24" fill="white"/>
<path d="M36.6159 11.0002L25.6743 19.1177L27.7064 14.3286L36.6159 11.0002Z" fill="#E17726" stroke="#E17726" stroke-width="0.712817" stroke-linecap="round" stroke-linejoin="round"/>
<path d="M11.384 11.0005L22.226 19.1947L20.2935 14.3288L11.384 11.0005Z" fill="#E27625" stroke="#E27625" stroke-width="0.712817" stroke-linecap="round" stroke-linejoin="round"/>
<path d="M32.6826 29.8171L29.772 34.2773L36.0002 35.9902L37.7801 29.9156L32.6826 29.8171Z" fill="#E27625" stroke="#E27625" stroke-width="0.712817" stroke-linecap="round" stroke-linejoin="round"/>
<path d="M10.2305 29.9154L11.9996 35.9899L18.2278 34.277L15.3279 29.8169L10.2305 29.9154Z" fill="#E27625" stroke="#E27625" stroke-width="0.712817" stroke-linecap="round" stroke-linejoin="round"/>
<path d="M17.8866 22.281L16.1511 24.9069L22.3249 25.1818L22.1161 18.5352L17.8866 22.281Z" fill="#E27625" stroke="#E27625" stroke-width="0.712817" stroke-linecap="round" stroke-linejoin="round"/>
<path d="M30.1126 22.2809L25.8171 18.4583L25.6743 25.1817L31.8481 24.9069L30.1126 22.2809Z" fill="#E27625" stroke="#E27625" stroke-width="0.712817" stroke-linecap="round" stroke-linejoin="round"/>
<path d="M18.2273 34.2775L21.9521 32.4638L18.7435 29.9597L18.2273 34.2775Z" fill="#E27625" stroke="#E27625" stroke-width="0.712817" stroke-linecap="round" stroke-linejoin="round"/>
<path d="M26.0476 32.4638L29.7724 34.2775L29.2562 29.9597L26.0476 32.4638Z" fill="#E27625" stroke="#E27625" stroke-width="0.712817" stroke-linecap="round" stroke-linejoin="round"/>
<path d="M29.7726 34.2771L26.0479 32.4634L26.3444 34.8917L26.3119 35.9133L29.7726 34.2771Z" fill="#D5BFB2" stroke="#D5BFB2" stroke-width="0.712817" stroke-linecap="round" stroke-linejoin="round"/>
<path d="M18.2273 34.2771L21.688 35.9133L21.6664 34.8917L21.9521 32.4634L18.2273 34.2771Z" fill="#D5BFB2" stroke="#D5BFB2" stroke-width="0.712817" stroke-linecap="round" stroke-linejoin="round"/>
<path d="M21.754 28.3557L18.6558 27.4445L20.8417 26.4446L21.754 28.3557Z" fill="#233447" stroke="#233447" stroke-width="0.712817" stroke-linecap="round" stroke-linejoin="round"/>
<path d="M18.2278 34.2775L18.7656 29.8169L15.3276 29.9154L18.2278 34.2775Z" fill="#CC6228" stroke="#CC6228" stroke-width="0.712817" stroke-linecap="round" stroke-linejoin="round"/>
<path d="M29.2344 29.8169L29.7722 34.2775L32.6832 29.9154L29.2344 29.8169Z" fill="#CC6228" stroke="#CC6228" stroke-width="0.712817" stroke-linecap="round" stroke-linejoin="round"/>
<path d="M26.2458 28.3554L27.1581 26.4443L29.3549 27.4442L26.2458 28.3554Z" fill="#233447" stroke="#233447" stroke-width="0.712817" stroke-linecap="round" stroke-linejoin="round"/>
<path d="M31.8483 24.907L25.6746 25.1818L26.2458 28.3553L27.158 26.4445L29.3544 27.4442L31.8483 24.907Z" fill="#CC6228" stroke="#CC6228" stroke-width="0.712817" stroke-linecap="round" stroke-linejoin="round"/>
<path d="M18.6559 27.4442L20.8415 26.4445L21.7536 28.3553L22.3249 25.1818L16.1511 24.907L18.6559 27.4442Z" fill="#CC6228" stroke="#CC6228" stroke-width="0.712817" stroke-linecap="round" stroke-linejoin="round"/>
<path d="M16.1511 24.907L18.7435 29.9598L18.6559 27.4442L16.1511 24.907Z" fill="#E27525" stroke="#E27525" stroke-width="0.712817" stroke-linecap="round" stroke-linejoin="round"/>
<path d="M29.3543 27.444L29.2559 29.9596L31.8483 24.9067L29.3543 27.444Z" fill="#E27525" stroke="#E27525" stroke-width="0.712817" stroke-linecap="round" stroke-linejoin="round"/>
<path d="M22.3247 25.1816L21.7534 28.3551L22.4783 32.1009L22.632 27.1692L22.3247 25.1816Z" fill="#E27525" stroke="#E27525" stroke-width="0.712817" stroke-linecap="round" stroke-linejoin="round"/>
<path d="M25.6746 25.1816L25.3782 27.1584L25.521 32.1009L26.2459 28.3551L25.6746 25.1816Z" fill="#E27525" stroke="#E27525" stroke-width="0.712817" stroke-linecap="round" stroke-linejoin="round"/>
<path d="M26.2459 28.3551L25.521 32.1009L26.0479 32.4634L29.256 29.9597L29.3545 27.4441L26.2459 28.3551Z" fill="#F5841F" stroke="#F5841F" stroke-width="0.712817" stroke-linecap="round" stroke-linejoin="round"/>
<path d="M18.6558 27.4443L18.7434 29.9599L21.9515 32.4636L22.4784 32.1012L21.7535 28.3554L18.6558 27.4443Z" fill="#F5841F" stroke="#F5841F" stroke-width="0.712817" stroke-linecap="round" stroke-linejoin="round"/>
<path d="M26.3123 35.9126L26.3447 34.8912L26.071 34.6499H21.9289L21.666 34.8912L21.6876 35.9126L18.2273 34.2766L19.4359 35.2645L21.8965 36.9676H26.1034L28.564 35.2645L29.7726 34.2766L26.3123 35.9126Z" fill="#C0AC9D" stroke="#C0AC9D" stroke-width="0.712817" stroke-linecap="round" stroke-linejoin="round"/>
<path d="M26.048 32.4635L25.5211 32.1011H22.4786L21.9517 32.4635L21.666 34.8915L21.9289 34.6502H26.0708L26.3445 34.8915L26.048 32.4635Z" fill="#161616" stroke="#161616" stroke-width="0.712817" stroke-linecap="round" stroke-linejoin="round"/>
<path d="M37.0768 19.6455L37.9998 15.1637L36.6159 11L26.0476 18.8437L30.1128 22.2813L35.8573 23.9628L37.1212 22.4793L36.5715 22.0844L37.4501 21.2815L36.7803 20.7546L37.6589 20.0848L37.0768 19.6455Z" fill="#763E1A" stroke="#763E1A" stroke-width="0.712817" stroke-linecap="round" stroke-linejoin="round"/>
<path d="M10 15.1639L10.9338 19.6457L10.3408 20.085L11.2195 20.7548L10.5497 21.2817L11.4283 22.0846L10.8786 22.4796L12.1424 23.963L17.887 22.2815L21.9522 18.8439L11.3839 11.0002L10 15.1639Z" fill="#763E1A" stroke="#763E1A" stroke-width="0.712817" stroke-linecap="round" stroke-linejoin="round"/>
<path d="M35.8574 23.9625L30.1128 22.281L31.8484 24.9071L29.2559 29.9602L32.6827 29.9159H37.7801L35.8574 23.9625Z" fill="#F5841F" stroke="#F5841F" stroke-width="0.712817" stroke-linecap="round" stroke-linejoin="round"/>
<path d="M17.887 22.281L12.1424 23.9625L10.2305 29.9159H15.3279L18.7439 29.9602L16.1514 24.9071L17.887 22.281Z" fill="#F5841F" stroke="#F5841F" stroke-width="0.712817" stroke-linecap="round" stroke-linejoin="round"/>
<path d="M25.6745 25.1817L26.0478 18.8435L27.7064 14.3284H20.2927L21.9514 18.8435L22.3247 25.1817L22.4675 27.1801L22.4783 32.101H25.5208L25.5317 27.1801L25.6745 25.1817Z" fill="#F5841F" stroke="#F5841F" stroke-width="0.712817" stroke-linecap="round" stroke-linejoin="round"/>
</svg>
