<svg width="48" height="48" viewBox="0 0 48 48" fill="none" xmlns="http://www.w3.org/2000/svg">
<circle cx="24" cy="24" r="24" fill="white"/>
<path d="M15.7322 19.2419C20.2984 14.9194 27.7016 14.9194 32.2679 19.2419L32.8174 19.7621C33.0457 19.9783 33.0457 20.3287 32.8174 20.5448L30.9375 22.3244C30.8233 22.4325 30.6382 22.4325 30.5241 22.3244L29.7678 21.6085C26.5823 18.593 21.4176 18.593 18.2321 21.6085L17.4223 22.3751C17.3081 22.4832 17.1231 22.4832 17.0089 22.3751L15.129 20.5956C14.9007 20.3794 14.9007 20.029 15.129 19.8129L15.7322 19.2419ZM36.1556 22.9223L37.8288 24.5061C38.0571 24.7222 38.0571 25.0726 37.8288 25.2888L30.2846 32.4305C30.0563 32.6466 29.6861 32.6466 29.4578 32.4305L24.1034 27.3618C24.0463 27.3078 23.9538 27.3078 23.8967 27.3618L18.5424 32.4305C18.3141 32.6466 17.9439 32.6466 17.7156 32.4305L10.1712 25.2887C9.94292 25.0725 9.94292 24.7222 10.1712 24.506L11.8443 22.9221C12.0727 22.7061 12.4428 22.7061 12.6711 22.9221L18.0256 27.9909C18.0827 28.045 18.1752 28.045 18.2323 27.9909L23.5865 22.9221C23.8148 22.7061 24.185 22.7061 24.4133 22.9221L29.7678 27.9909C29.8249 28.045 29.9174 28.045 29.9745 27.9909L35.3288 22.9223C35.5572 22.7061 35.9273 22.7061 36.1556 22.9223Z" fill="#3396FF"/>
</svg>
