<svg width="24" height="24" viewBox="0 0 24 24" fill="none" xmlns="http://www.w3.org/2000/svg">
<g clip-path="url(#clip0_2335_10879)">
<path fill-rule="evenodd" clip-rule="evenodd" d="M2.75 12.0569C2.75 9.48589 4.81808 7.41168 7.35847 7.41168C9.89882 7.41168 11.9671 9.48658 11.9671 12.0569C11.9671 14.6273 9.89896 16.7023 7.35847 16.7023C4.81794 16.7023 2.75 14.628 2.75 12.0569ZM7.35847 5.91168C3.98014 5.91168 1.25 8.667 1.25 12.0569C1.25 15.4468 3.97991 18.2023 7.35847 18.2023C9.77864 18.2023 11.866 16.788 12.8556 14.7399C12.9901 15.1968 13.159 15.62 13.3584 15.9979C13.8927 17.0107 14.7603 17.8857 15.9163 17.8857C17.0722 17.8857 17.9398 17.011 18.4742 15.9982C18.5487 15.8569 18.619 15.7094 18.6848 15.5561C18.7711 15.9432 18.8796 16.2982 19.0172 16.5794C19.0929 16.7339 19.1961 16.9055 19.3405 17.0482C19.4872 17.1932 19.7294 17.3573 20.0576 17.3573C20.3858 17.3573 20.628 17.1933 20.7747 17.0483C20.9191 16.9056 21.0223 16.7341 21.098 16.5795C21.2509 16.2673 21.3678 15.864 21.4584 15.4267C21.6421 14.5397 21.75 13.3487 21.75 12.0569C21.75 10.7652 21.6422 9.57425 21.4586 8.68729C21.368 8.24998 21.2511 7.84659 21.0983 7.53434C21.0226 7.37975 20.9194 7.20818 20.7749 7.06546C20.6281 6.92043 20.386 6.75651 20.0578 6.75651C19.7296 6.75651 19.4875 6.92049 19.3407 7.0655C19.1963 7.20822 19.093 7.37979 19.0173 7.53439C18.8797 7.8156 18.7711 8.17073 18.6847 8.55799C18.6189 8.40472 18.5487 8.25717 18.4742 8.11595C17.9399 7.10308 17.0723 6.22811 15.9163 6.22811C14.7603 6.22811 13.8927 7.10308 13.3584 8.11595C13.159 8.49385 12.9901 8.91701 12.8555 9.37402C11.866 7.32591 9.77849 5.91168 7.35847 5.91168ZM13.987 12.0569C13.987 10.7517 14.2677 9.607 14.6851 8.81582C15.1205 7.99036 15.5926 7.72811 15.9163 7.72811C16.24 7.72811 16.712 7.99036 17.1475 8.81582C17.5648 9.607 17.8456 10.7517 17.8456 12.0569C17.8456 13.3625 17.5648 14.5072 17.1475 15.2982C16.7121 16.1235 16.2401 16.3857 15.9163 16.3857C15.5926 16.3857 15.1205 16.1234 14.6851 15.298C14.2677 14.5068 13.987 13.3621 13.987 12.0569Z" fill="#1D1D1D"/>
</g>
<defs>
<clipPath id="clip0_2335_10879">
<rect width="24" height="24" fill="white"/>
</clipPath>
</defs>
</svg>
