<svg width="9" height="16" viewBox="0 0 9 16" fill="none" xmlns="http://www.w3.org/2000/svg">
    <path d="M3.19446 10.7057V10.5707C3.20393 9.69005 3.29152 8.98929 3.45724 8.46846C3.6277 7.94763 3.86917 7.52623 4.18167 7.20426C4.49417 6.88229 4.87059 6.58873 5.31094 6.32357C5.59503 6.14365 5.85071 5.94242 6.07798 5.71988C6.30525 5.49734 6.48518 5.24166 6.61775 4.95284C6.75033 4.66401 6.81662 4.34441 6.81662 3.99403C6.81662 3.57263 6.71719 3.20804 6.51832 2.90028C6.31946 2.59251 6.05431 2.35577 5.72287 2.19005C5.39616 2.0196 5.03158 1.93437 4.62912 1.93437C4.26453 1.93437 3.91652 2.01013 3.58508 2.16164C3.25364 2.31316 2.97902 2.5499 2.76122 2.87187C2.54342 3.1891 2.41794 3.59867 2.3848 4.10056H0.225708C0.258852 3.24829 0.474288 2.52859 0.872015 1.94147C1.26974 1.34962 1.79531 0.902173 2.44872 0.599142C3.10686 0.296112 3.83366 0.144597 4.62912 0.144597C5.50033 0.144597 6.26264 0.30795 6.91605 0.634655C7.56946 0.956624 8.07609 1.4088 8.43594 1.99119C8.80052 2.56884 8.98281 3.24356 8.98281 4.01534C8.98281 4.54564 8.89995 5.02386 8.73423 5.45C8.56851 5.8714 8.33177 6.24782 8.024 6.57926C7.72097 6.9107 7.35639 7.20426 6.93025 7.45994C6.52779 7.71089 6.20109 7.9713 5.95014 8.24119C5.70393 8.51107 5.524 8.83068 5.41037 9.2C5.29673 9.56931 5.23518 10.0262 5.22571 10.5707V10.7057H3.19446ZM4.2669 15.0239C3.87864 15.0239 3.54484 14.8865 3.26548 14.6119C2.98612 14.3326 2.84645 13.9964 2.84645 13.6034C2.84645 13.2151 2.98612 12.8837 3.26548 12.6091C3.54484 12.3297 3.87864 12.1901 4.2669 12.1901C4.65042 12.1901 4.98186 12.3297 5.26122 12.6091C5.54531 12.8837 5.68736 13.2151 5.68736 13.6034C5.68736 13.8638 5.62107 14.1029 5.48849 14.3207C5.36065 14.5338 5.1902 14.7043 4.97713 14.8321C4.76406 14.9599 4.52732 15.0239 4.2669 15.0239Z" fill="#3568DD"/>
</svg>

